. 
  
http://www.torrentday.com   -    Your Key To The Scene.

Now TvTeam with [No-RAR] Releases.

(((((((((((((= Enjoy No RAR releases =))))))))))))))))))))

...................................NFO:....................................

.      *********** ****    ****      ***      ******** *********** ****    *** **********
           *+*     +*+*+* *+*+*+   *+* *+*   *+*    *+*    *+*     *+*+*   *+* *+*        
           +*+     +*+ +*+*+ +*+  +*+   +*+  +*+           +*+     *+*+*+  +*+ +*+        
           +$+     +$+  +*+  +$+ +$++*++$++* *$*           +$+     +$+ +*+ +$+ +$++*++$  
           +$+     +$+       +$+ +$+     +$+ +$+   +$+$    +$+     +$+  +$+$+$ +$+        
           $+$     $+$       $+$ $+$     $+$ $+$    $+$    $+$     $+$   $+$+$ $+$        
       $$$$$$$$$$$ $$$       $$$ $$$     $$$  $$$$$$$$ $$$$$$$$$$$ $$$    $$$$ $$$$$$$$$$     
                                                



                           Another Fine Release Brought to you from - IMAGiNE                   
                                              http://imaginegroup.me/  
    
********************************************************************************************************************                                
                                     Kick-Ass V1 READNFO CAM XViD - IMAGiNE 
********************************************************************************************************************

Ripper ...........: IMAGiNE                                      IMDB Rating.......:8.3/10                             
Video Codec.......: XVID                                         Release Date......:17/04/10
Audio Codec.......:MP3                                           Theatre Date......:16/04/10
Audio Bitrate.....:128                                           Runtime.......1h 50mn       Language..........:ENGLISH
Resolution...... 720 x 304                                       IMDb URL..........:http://www.imdb.com/title/tt1250777/


[color=yellow]DETAILS:[/color]

Video
ID                               : 0
Format                           : MPEG-4 Visual
Format profile                   : Advanced Simple@L5
Format settings, BVOP            : Yes
Format settings, QPel            : No
Format settings, GMC             : No warppoints
Format settings, Matrix          : Default (H.263)
Muxing mode                      : Packed bitstream
Codec ID                         : XVID
Codec ID/Hint                    : XviD
Duration                         : 1h 50mn
Bit rate                         : 1 561 Kbps
Width                            : 720 pixels
Height                           : 304 pixels
Display aspect ratio             : 2.35:1
Frame rate                       : 25.000 fps
Resolution                       : 8 bits
Colorimetry                      : 4:2:0
Scan type                        : Progressive
Bits/(Pixel*Frame)               : 0.285
Stream size                      : 1.20 GiB (92%)
Writing library                  : XviD 1.2.1 (UTC 2008-12-04)

Audio
ID                               : 1
Format                           : MPEG Audio
Codec ID                         : 55
Codec ID/Hint                    : MP3
Duration                         : 1h 50mn
Bit rate                         : 128 Kbps
Channel(s)                       : 2 channels
Sampling rate                    : 44.1 KHz
Stream size                      : 102 MiB (8%)
Alignment                        : Split accross interleaves


[color=yellow]NOTES:[/color]

IMAGiNE bringing you another release.....
Here we are with Kick Ass, We decided to not do alot to this as we will be getting another source and adding direct audio to it. Thanks to ELEKTRI4KA for the video and WingChun for the audio.
Both video and audio is pretty good and very watchable. ;)  

Anyway enjoy :)

[color=yellow]SCREENS:[/color]
[img]http://imagine.takagari.com/KICK%20ASS/vlcsnap-2010-04-17-16h59m44s193.png[/img]
[img]http://imagine.takagari.com/KICK%20ASS/vlcsnap-2010-04-17-17h00m20s213.png[/img]
[img]http://imagine.takagari.com/KICK%20ASS/vlcsnap-2010-04-17-17h00m49s250.png[/img]
[img]http://imagine.takagari.com/KICK%20ASS/vlcsnap-2010-04-17-17h01m00s118.png[/img]
[img]http://imagine.takagari.com/KICK%20ASS/vlcsnap-2010-04-17-17h02m31s254.png[/img]
[img]http://imagine.takagari.com/KICK%20ASS/vlcsnap-2010-04-17-17h03m36s143.png[/img]
[color=yellow]GREETS:[/color]

FLAWL3SS,ViSiON,DEViSE,FUSiON,STG,SecretMyth,BirdFlu,ELEKTRI4KA
And to all the other p2p grps past and present 

Special thanks to Python-Lair for the server :)
And special thanks to supreme-speeds.com for the ripbox :)

[COLOR=RED]Looking for these,syncers,cammer,silver supplier.....Have anything to offer????......
Contact us imaginegroup@hushmail.com[/COLOR]